<svg width="21" height="18" viewBox="0 0 21 18" fill="none" xmlns="http://www.w3.org/2000/svg">
<path d="M5.48593 14.129C3.64093 12.819 2.18093 11.115 1.35593 10.039C1.12523 9.74198 1 9.37659 1 9.0005C1 8.62441 1.12523 8.25902 1.35593 7.962C2.84893 6.013 6.43093 2 10.6129 2C12.4889 2 14.2429 2.807 15.7429 3.874" stroke="#474A51" stroke-linecap="round" stroke-linejoin="round"/>
<path d="M12.743 6.887C12.4653 6.60467 12.1345 6.38011 11.7695 6.22628C11.4046 6.07246 11.0128 5.99241 10.6168 5.99075C10.2208 5.98909 9.82837 6.06586 9.46217 6.21662C9.09597 6.36738 8.76324 6.58916 8.48318 6.86915C8.20312 7.14915 7.98126 7.48182 7.83041 7.84799C7.67956 8.21416 7.60271 8.60657 7.60427 9.00258C7.60584 9.3986 7.6858 9.79039 7.83954 10.1554C7.99327 10.5203 8.21775 10.8512 8.50002 11.129" stroke="#474A51" stroke-linecap="round" stroke-linejoin="round"/>
<path d="M2.61304 17L18.613 1" stroke="#474A51" stroke-linecap="round" stroke-linejoin="round"/>
<path d="M8.61304 15.704C9.26224 15.8972 9.93569 15.9969 10.613 16C14.795 16 18.377 11.987 19.87 10.038C20.1007 9.74071 20.2258 9.37509 20.2256 8.99883C20.2254 8.62256 20.1 8.25707 19.869 7.96C19.3443 7.27549 18.7814 6.62112 18.183 6" stroke="#474A51" stroke-linecap="round" stroke-linejoin="round"/>
</svg>
